<svg width="22" height="21" viewBox="0 0 22 21" fill="none" xmlns="http://www.w3.org/2000/svg">
<rect width="22" height="21" fill="#AAAAAA" style="fill:#AAAAAA;fill:color(display-p3 0.6656 0.6656 0.6656);fill-opacity:1;"/>
<g id="Main page" clip-path="url(#clip0_0_1)">
<rect width="375" height="812" transform="translate(-18 -57)" fill="#353535" style="fill:#353535;fill:color(display-p3 0.2094 0.2094 0.2094);fill-opacity:1;"/>
<g id="Component 1">
</g>
<g id="Frame 54">
<g id="Frame 52">
<g id="Frame 13">
<g id="Frame 12">
<path id="Vector" d="M10.0524 0.921805C10.25 0.750733 10.505 0.65625 10.7692 0.65625C11.0335 0.65625 11.2885 0.750733 11.4861 0.921805L21.2024 9.34318C21.4055 9.53131 21.5257 9.78906 21.5375 10.062C21.5493 10.3349 21.4519 10.6016 21.2658 10.8057C21.0797 11.0099 20.8194 11.1355 20.5401 11.1561C20.2607 11.1766 19.9841 11.0905 19.7687 10.9159L19.406 10.6032V18.5509C19.406 19.1093 19.1785 19.6448 18.7736 20.0396C18.3686 20.4344 17.8194 20.6562 17.2468 20.6562H4.29167C3.71902 20.6562 3.16982 20.4344 2.7649 20.0396C2.35997 19.6448 2.13249 19.1093 2.13249 18.5509V10.6032L1.76974 10.9159C1.55432 11.0905 1.27772 11.1766 0.998373 11.1561C0.719027 11.1355 0.458811 11.0099 0.272696 10.8057C0.0865812 10.6016 -0.0108581 10.3349 0.0009624 10.062C0.0127829 9.78906 0.132937 9.53131 0.336043 9.34318L10.0524 0.921805ZM4.29167 8.72947V18.5509H7.53045V13.2875C7.53045 13.0084 7.64419 12.7406 7.84666 12.5432C8.04912 12.3458 8.32372 12.2349 8.61004 12.2349H12.9284C13.2147 12.2349 13.4893 12.3458 13.6918 12.5432C13.8943 12.7406 14.008 13.0084 14.008 13.2875V18.5509H17.2468V8.73053L10.7692 3.11663L4.29167 8.72947ZM11.8488 18.5509V14.3402H9.68964V18.5509H11.8488Z" fill="white" style="fill:white;fill-opacity:1;"/>
</g>
</g>
</g>
</g>
</g>
<defs>
<clipPath id="clip0_0_1">
<rect width="375" height="812" fill="white" style="fill:white;fill-opacity:1;" transform="translate(-18 -57)"/>
</clipPath>
</defs>
</svg>
