<svg width="23" height="22" viewBox="0 0 23 22" fill="none" xmlns="http://www.w3.org/2000/svg">
<g id="Vector" filter="url(#filter0_d_706_499)">
<path id="Vector_2" d="M19.75 8.09489C19.75 13.5649 12.1048 17.9925 11.7792 18.1754C11.6934 18.2244 11.5974 18.25 11.5 18.25C11.4026 18.25 11.3066 18.2244 11.2208 18.1754C10.8952 17.9925 3.25 13.5649 3.25 8.09489C3.25136 6.81039 3.73296 5.57892 4.58914 4.67064C5.44532 3.76236 6.60615 3.25145 7.81696 3.25C9.33806 3.25 10.6698 3.94391 11.5 5.11685C12.3302 3.94391 13.6619 3.25 15.183 3.25C16.3939 3.25145 17.5547 3.76236 18.4109 4.67064C19.267 5.57892 19.7486 6.81039 19.75 8.09489Z" fill="#FFFA79" style="fill:#FFFA79;fill:color(display-p3 1.0000 0.9790 0.4746);fill-opacity:1;"/>
</g>
<defs>
<filter id="filter0_d_706_499" x="0.25" y="0.25" width="22.5" height="21" filterUnits="userSpaceOnUse" color-interpolation-filters="sRGB">
<feFlood flood-opacity="0" result="BackgroundImageFix"/>
<feColorMatrix in="SourceAlpha" type="matrix" values="0 0 0 0 0 0 0 0 0 0 0 0 0 0 0 0 0 0 127 0" result="hardAlpha"/>
<feOffset/>
<feGaussianBlur stdDeviation="1.5"/>
<feComposite in2="hardAlpha" operator="out"/>
<feColorMatrix type="matrix" values="0 0 0 0 0 0 0 0 0 0 0 0 0 0 0 0 0 0 0.25 0"/>
<feBlend mode="normal" in2="BackgroundImageFix" result="effect1_dropShadow_706_499"/>
<feBlend mode="normal" in="SourceGraphic" in2="effect1_dropShadow_706_499" result="shape"/>
</filter>
</defs>
</svg>
