<svg width="19" height="21" viewBox="0 0 19 21" fill="none" xmlns="http://www.w3.org/2000/svg">
<g id="Group">
<path id="Vector" d="M0.605364 19.45L1.60421 19.498C1.68164 17.8859 2.22718 16.3326 3.17259 15.0302C4.11795 13.7279 5.42144 12.7339 6.92114 12.1703L8.73649 11.4881L7.12795 10.4048C6.48124 9.96925 5.9506 9.37959 5.58351 8.68755C5.2164 7.99548 5.02436 7.22265 5.02472 6.43752L5.02472 6.43697C5.02465 5.61038 5.23734 4.79819 5.64167 4.07952C6.04597 3.3609 6.62793 2.76058 7.33029 2.33645C8.03262 1.91235 8.83165 1.6787 9.64964 1.65779C10.4676 1.63688 11.2773 1.82939 12 2.21699C12.7228 2.60461 13.3342 3.17431 13.7742 3.87122C14.2142 4.56817 14.4676 5.36836 14.5092 6.19387C14.5509 7.01939 14.3793 7.84145 14.0116 8.5799C13.6439 9.31832 13.0928 9.94763 12.4125 10.4071L10.808 11.4907L12.6205 12.1718C14.12 12.7354 15.4233 13.7291 16.3686 15.0312C17.3137 16.3328 17.8593 17.8852 17.9373 19.4965C17.9382 19.5174 17.935 19.5382 17.9281 19.5576L17.9281 19.5576C17.9211 19.5772 17.9104 19.5948 17.8971 19.6095C17.8837 19.6242 17.8679 19.6358 17.8508 19.6439L17.8508 19.6439C17.8374 19.6502 17.8232 19.6544 17.8088 19.6562H1.73224C1.6996 19.6518 1.66834 19.6359 1.64445 19.6095C1.61741 19.5796 1.60233 19.5389 1.6043 19.4962L0.605364 19.45ZM0.605364 19.45C0.591244 19.7556 0.698331 20.0544 0.903081 20.2806C1.10783 20.5068 1.39348 20.6419 1.69723 20.6562L4.02472 6.43706C4.02428 7.38549 4.25625 8.31941 4.7001 9.15615C4.96531 9.65613 5.30128 10.1122 5.6959 10.5109C5.86748 10.4353 6.04143 10.3643 6.21757 10.2981L6.56936 11.2342L6.01076 12.0637C5.84299 11.9507 5.68076 11.8304 5.52447 11.7034C4.28047 12.3583 3.19737 13.2938 2.36333 14.4427C1.3033 15.903 0.692105 17.6439 0.605364 19.45Z" fill="white" stroke="white" style="fill:white;fill-opacity:1;stroke:white;stroke-opacity:1;" stroke-width="2"/>
</g>
</svg>
