<svg width="19" height="21" viewBox="0 0 19 21" fill="none" xmlns="http://www.w3.org/2000/svg">
<path d="M0.667864 19.45L1.66671 19.498C1.74414 17.8859 2.28968 16.3326 3.23509 15.0302C4.18045 13.7279 5.48394 12.7339 6.98364 12.1703L8.79899 11.4881L7.19045 10.4048C6.54374 9.96925 6.0131 9.37959 5.64601 8.68755C5.2789 7.99548 5.08686 7.22265 5.08722 6.43752L5.08722 6.43697C5.08715 5.61038 5.29984 4.79819 5.70417 4.07952C6.10847 3.3609 6.69043 2.76058 7.39279 2.33645C8.09512 1.91235 8.89415 1.6787 9.71214 1.65779C10.5301 1.63688 11.3398 1.82939 12.0625 2.21699C12.7853 2.60461 13.3967 3.17431 13.8367 3.87122C14.2767 4.56817 14.5301 5.36836 14.5717 6.19387C14.6134 7.01939 14.4418 7.84145 14.0741 8.5799C13.7064 9.31832 13.1553 9.94763 12.475 10.4071L10.8705 11.4907L12.683 12.1718C14.1825 12.7354 15.4858 13.7291 16.4311 15.0312C17.3762 16.3328 17.9218 17.8852 17.9998 19.4965C18.0007 19.5174 17.9975 19.5382 17.9906 19.5576L17.9906 19.5576C17.9836 19.5772 17.9729 19.5948 17.9596 19.6095C17.9462 19.6242 17.9304 19.6358 17.9133 19.6439L17.9133 19.6439C17.8999 19.6502 17.8857 19.6544 17.8713 19.6562H1.79474C1.7621 19.6518 1.73084 19.6359 1.70695 19.6095C1.67991 19.5796 1.66483 19.5389 1.6668 19.4962L0.667864 19.45ZM0.667864 19.45C0.653744 19.7556 0.760831 20.0544 0.965581 20.2806C1.17033 20.5068 1.45598 20.6419 1.75973 20.6562L4.08722 6.43706C4.08678 7.38549 4.31875 8.31941 4.7626 9.15615C5.02781 9.65613 5.36378 10.1122 5.7584 10.5109C5.92998 10.4353 6.10393 10.3643 6.28007 10.2981L6.63186 11.2342L6.07326 12.0637C5.90549 11.9507 5.74326 11.8304 5.58697 11.7034C4.34297 12.3583 3.25987 13.2938 2.42583 14.4427C1.3658 15.903 0.754605 17.6439 0.667864 19.45Z" stroke="white" style="stroke:white;stroke-opacity:1;" stroke-width="2"/>
</svg>
