<svg width="36" height="18" viewBox="0 0 36 18" fill="none" xmlns="http://www.w3.org/2000/svg">
<path id="Vector" d="M27 4.72083e-06L9 1.57361e-06C4.032 7.04977e-07 -7.04977e-07 4.032 -1.57361e-06 9C-2.44224e-06 13.968 4.032 18 9 18L27 18C31.968 18 36 13.968 36 9.00001C36 4.03201 31.968 5.58946e-06 27 4.72083e-06ZM27 14.4C24.012 14.4 21.6 11.988 21.6 9C21.6 6.012 24.012 3.6 27 3.6C29.988 3.60001 32.4 6.01201 32.4 9.00001C32.4 11.988 29.988 14.4 27 14.4Z" fill="white" style="fill:white;fill-opacity:1;"/>
</svg>
