<svg width="23" height="22" viewBox="0 0 23 22" fill="none" xmlns="http://www.w3.org/2000/svg">
<g id="Vector" filter="url(#filter0_d_706_282)">
<path id="Vector_2" d="M15.3762 15.0684C13.6672 16.6561 11.9216 17.7229 11.5 17.9705C11.0784 17.7229 9.33278 16.6561 7.6238 15.0684C5.70017 13.2812 4.00019 10.9975 4 8.5953C4.00127 7.49576 4.41396 6.44989 5.13489 5.68508C5.8544 4.92179 6.82012 4.50132 7.81742 4.5C9.10097 4.50014 10.2018 5.08081 10.8878 6.05013C11.0284 6.24877 11.2566 6.36685 11.5 6.36685C11.7434 6.36685 11.9716 6.24877 12.1122 6.05013C12.7982 5.08081 13.899 4.50014 15.1826 4.5C16.1799 4.50132 17.1456 4.92179 17.8651 5.68508C18.586 6.44979 18.9986 7.4955 19 8.59489C19 10.9972 17.2999 13.2811 15.3762 15.0684Z" stroke="white" style="stroke:white;stroke-opacity:1;" stroke-width="1.5" stroke-linejoin="round"/>
</g>
<defs>
<filter id="filter0_d_706_282" x="0.25" y="0.75" width="22.5" height="21" filterUnits="userSpaceOnUse" color-interpolation-filters="sRGB">
<feFlood flood-opacity="0" result="BackgroundImageFix"/>
<feColorMatrix in="SourceAlpha" type="matrix" values="0 0 0 0 0 0 0 0 0 0 0 0 0 0 0 0 0 0 127 0" result="hardAlpha"/>
<feOffset/>
<feGaussianBlur stdDeviation="1.5"/>
<feComposite in2="hardAlpha" operator="out"/>
<feColorMatrix type="matrix" values="0 0 0 0 0 0 0 0 0 0 0 0 0 0 0 0 0 0 0.25 0"/>
<feBlend mode="normal" in2="BackgroundImageFix" result="effect1_dropShadow_706_282"/>
<feBlend mode="normal" in="SourceGraphic" in2="effect1_dropShadow_706_282" result="shape"/>
</filter>
</defs>
</svg>
